<svg width="32" height="32" viewBox="0 0 32 32" fill="none" xmlns="http://www.w3.org/2000/svg">
<g id="ArrowFatLeft">
<path id="Vector" d="M26.0008 8.99981H16.0008V3.99981C16.0009 3.80192 15.9424 3.60842 15.8325 3.44383C15.7226 3.27923 15.5664 3.15094 15.3836 3.07519C15.2008 2.99944 14.9996 2.97963 14.8055 3.01828C14.6114 3.05693 14.4331 3.1523 14.2933 3.29231L2.29329 15.2923C2.20031 15.3852 2.12655 15.4955 2.07623 15.6169C2.0259 15.7383 2 15.8684 2 15.9998C2 16.1312 2.0259 16.2614 2.07623 16.3828C2.12655 16.5041 2.20031 16.6144 2.29329 16.7073L14.2933 28.7073C14.4331 28.8473 14.6114 28.9427 14.8055 28.9813C14.9996 29.02 15.2008 29.0002 15.3836 28.9244C15.5664 28.8487 15.7226 28.7204 15.8325 28.5558C15.9424 28.3912 16.0009 28.1977 16.0008 27.9998V22.9998H26.0008C26.5312 22.9998 27.0399 22.7891 27.415 22.414C27.7901 22.039 28.0008 21.5302 28.0008 20.9998V10.9998C28.0008 10.4694 27.7901 9.96067 27.415 9.5856C27.0399 9.21053 26.5312 8.99981 26.0008 8.99981ZM26.0008 20.9998H15.0008C14.7356 20.9998 14.4812 21.1052 14.2937 21.2927C14.1061 21.4802 14.0008 21.7346 14.0008 21.9998V25.5861L4.41454 15.9998L14.0008 6.41356V9.99981C14.0008 10.265 14.1061 10.5194 14.2937 10.7069C14.4812 10.8945 14.7356 10.9998 15.0008 10.9998H26.0008V20.9998Z" fill="#F0F0F2"/>
</g>
</svg>
