<svg width="30" height="30" viewBox="0 0 30 30" fill="none" xmlns="http://www.w3.org/2000/svg">
<g id="Calculator">
<path id="Exclude" fill-rule="evenodd" clip-rule="evenodd" d="M6.6875 2C5.58293 2 4.6875 2.89543 4.6875 4V25.3125C4.6875 26.4171 5.58293 27.3125 6.6875 27.3125H23.3125C24.4171 27.3125 25.3125 26.4171 25.3125 25.3125V4C25.3125 2.89543 24.4171 2 23.3125 2H6.6875ZM8.5 5.75C7.94772 5.75 7.5 6.19772 7.5 6.75V12.25C7.5 12.8023 7.94772 13.25 8.5 13.25H21.5C22.0523 13.25 22.5 12.8023 22.5 12.25V6.75C22.5 6.19772 22.0523 5.75 21.5 5.75H8.5ZM11.25 17.9375C11.25 18.973 10.4105 19.8125 9.375 19.8125C8.33947 19.8125 7.5 18.973 7.5 17.9375C7.5 16.902 8.33947 16.0625 9.375 16.0625C10.4105 16.0625 11.25 16.902 11.25 17.9375ZM9.375 25.4375C10.4105 25.4375 11.25 24.598 11.25 23.5625C11.25 22.527 10.4105 21.6875 9.375 21.6875C8.33947 21.6875 7.5 22.527 7.5 23.5625C7.5 24.598 8.33947 25.4375 9.375 25.4375ZM16.875 17.9375C16.875 18.973 16.0355 19.8125 15 19.8125C13.9645 19.8125 13.125 18.973 13.125 17.9375C13.125 16.902 13.9645 16.0625 15 16.0625C16.0355 16.0625 16.875 16.902 16.875 17.9375ZM15 25.4375C16.0355 25.4375 16.875 24.598 16.875 23.5625C16.875 22.527 16.0355 21.6875 15 21.6875C13.9645 21.6875 13.125 22.527 13.125 23.5625C13.125 24.598 13.9645 25.4375 15 25.4375ZM22.5 17.9375C22.5 18.973 21.6605 19.8125 20.625 19.8125C19.5895 19.8125 18.75 18.973 18.75 17.9375C18.75 16.902 19.5895 16.0625 20.625 16.0625C21.6605 16.0625 22.5 16.902 22.5 17.9375ZM20.625 25.4375C21.6605 25.4375 22.5 24.598 22.5 23.5625C22.5 22.527 21.6605 21.6875 20.625 21.6875C19.5895 21.6875 18.75 22.527 18.75 23.5625C18.75 24.598 19.5895 25.4375 20.625 25.4375Z" fill="white"/>
</g>
</svg>
