<svg width="24" height="24" viewBox="0 0 24 24" fill="none" xmlns="http://www.w3.org/2000/svg">
<g id="CaretDoubleDown">
<path id="Vector" d="M20.031 11.4693C20.1008 11.539 20.1561 11.6217 20.1938 11.7127C20.2316 11.8038 20.251 11.9014 20.251 11.9999C20.251 12.0985 20.2316 12.1961 20.1938 12.2871C20.1561 12.3782 20.1008 12.4609 20.031 12.5306L12.531 20.0306C12.4614 20.1003 12.3787 20.1556 12.2876 20.1933C12.1966 20.2311 12.099 20.2505 12.0004 20.2505C11.9019 20.2505 11.8043 20.2311 11.7132 20.1933C11.6222 20.1556 11.5394 20.1003 11.4698 20.0306L3.96979 12.5306C3.82906 12.3898 3.75 12.199 3.75 11.9999C3.75 11.8009 3.82906 11.61 3.96979 11.4693C4.11052 11.3286 4.30139 11.2495 4.50042 11.2495C4.69944 11.2495 4.89031 11.3286 5.03104 11.4693L12.0004 18.4396L18.9698 11.4693C19.0394 11.3996 19.1222 11.3443 19.2132 11.3065C19.3043 11.2688 19.4019 11.2493 19.5004 11.2493C19.599 11.2493 19.6966 11.2688 19.7876 11.3065C19.8787 11.3443 19.9614 11.3996 20.031 11.4693ZM11.4698 12.5306C11.5394 12.6003 11.6222 12.6556 11.7132 12.6933C11.8043 12.7311 11.9019 12.7505 12.0004 12.7505C12.099 12.7505 12.1966 12.7311 12.2876 12.6933C12.3787 12.6556 12.4614 12.6003 12.531 12.5306L20.031 5.03055C20.1718 4.88982 20.2508 4.69895 20.2508 4.49993C20.2508 4.30091 20.1718 4.11003 20.031 3.9693C19.8903 3.82857 19.6994 3.74951 19.5004 3.74951C19.3014 3.74951 19.1105 3.82857 18.9698 3.9693L12.0004 10.9396L5.03104 3.9693C4.89031 3.82857 4.69944 3.74951 4.50042 3.74951C4.30139 3.74951 4.11052 3.82857 3.96979 3.9693C3.82906 4.11003 3.75 4.30091 3.75 4.49993C3.75 4.69895 3.82906 4.88982 3.96979 5.03055L11.4698 12.5306Z" fill="#F0F0F2"/>
</g>
</svg>
