<svg width="32" height="32" viewBox="0 0 32 32" fill="none" xmlns="http://www.w3.org/2000/svg">
<g id="CheckFat">
<path id="Vector" d="M30.4097 8.53003L27.4097 5.58503C27.0349 5.21176 26.5274 5.0022 25.9984 5.0022C25.4695 5.0022 24.962 5.21176 24.5872 5.58503L12.9997 17L12.9859 16.9863L8.40595 12.5775C8.03018 12.2056 7.52245 11.9977 6.99378 11.9991C6.4651 12.0005 5.95848 12.2111 5.5847 12.585L2.5847 15.585C2.21029 15.96 2 16.4683 2 16.9982C2 17.5281 2.21029 18.0363 2.5847 18.4113L11.5372 27.4113C11.7229 27.597 11.9434 27.7444 12.1861 27.8449C12.4288 27.9455 12.6889 27.9972 12.9516 27.9972C13.2143 27.9972 13.4744 27.9455 13.717 27.8449C13.9597 27.7444 14.1802 27.597 14.3659 27.4113L30.4159 11.3638C30.6021 11.1776 30.7496 10.9564 30.85 10.713C30.9505 10.4697 31.0019 10.2089 31.0013 9.9456C31.0007 9.68232 30.9481 9.42175 30.8466 9.17883C30.7451 8.93591 30.5966 8.71543 30.4097 8.53003ZM12.9522 26L3.9997 17L6.9997 14L7.01345 14.0138L11.5934 18.4225C11.968 18.7935 12.4738 19.0016 13.0009 19.0016C13.5281 19.0016 14.0339 18.7935 14.4084 18.4225L26.0072 7.00003L28.9997 9.95003L12.9522 26Z" fill="black"/>
</g>
</svg>
