<svg width="26" height="26" viewBox="0 0 26 26" fill="none" xmlns="http://www.w3.org/2000/svg">
<g id="Coins">
<path id="Vector" d="M18.6875 9.09695V8.53125C18.6875 5.98406 14.8454 4.0625 9.75 4.0625C4.65461 4.0625 0.8125 5.98406 0.8125 8.53125V12.5938C0.8125 14.7154 3.47852 16.4013 7.3125 16.9061V17.4688C7.3125 20.0159 11.1546 21.9375 16.25 21.9375C21.3454 21.9375 25.1875 20.0159 25.1875 17.4688V13.4062C25.1875 11.3039 22.6058 9.61594 18.6875 9.09695ZM23.5625 13.4062C23.5625 14.7489 20.4354 16.25 16.25 16.25C15.8712 16.25 15.4954 16.2368 15.1247 16.2124C17.3154 15.4141 18.6875 14.1172 18.6875 12.5938V10.7392C21.7212 11.1912 23.5625 12.418 23.5625 13.4062ZM7.3125 15.2598V12.8436C8.12071 12.9489 8.93496 13.0012 9.75 13C10.565 13.0012 11.3793 12.9489 12.1875 12.8436V15.2598C11.3805 15.379 10.5658 15.4384 9.75 15.4375C8.93423 15.4384 8.11951 15.379 7.3125 15.2598ZM17.0625 11.1648V12.5938C17.0625 13.4459 15.8021 14.3609 13.8125 14.9165V12.543C15.1237 12.2251 16.2338 11.7518 17.0625 11.1648ZM9.75 5.6875C13.9354 5.6875 17.0625 7.18859 17.0625 8.53125C17.0625 9.87391 13.9354 11.375 9.75 11.375C5.56461 11.375 2.4375 9.87391 2.4375 8.53125C2.4375 7.18859 5.56461 5.6875 9.75 5.6875ZM2.4375 12.5938V11.1648C3.26625 11.7518 4.37633 12.2251 5.6875 12.543V14.9165C3.69789 14.3609 2.4375 13.4459 2.4375 12.5938ZM8.9375 17.4688V17.0452C9.20461 17.0554 9.47477 17.0625 9.75 17.0625C10.1441 17.0625 10.529 17.0493 10.9068 17.027C11.3265 17.1772 11.754 17.3047 12.1875 17.4088V19.7915C10.1979 19.2359 8.9375 18.3209 8.9375 17.4688ZM13.8125 20.1348V17.7125C14.6205 17.8211 15.4348 17.8754 16.25 17.875C17.065 17.8762 17.8793 17.8239 18.6875 17.7186V20.1348C17.0711 20.3717 15.4289 20.3717 13.8125 20.1348ZM20.3125 19.7915V17.418C21.6237 17.1001 22.7337 16.6268 23.5625 16.0398V17.4688C23.5625 18.3209 22.3021 19.2359 20.3125 19.7915Z" fill="#F0F0F2"/>
</g>
</svg>
