<svg width="33" height="33" viewBox="0 0 33 33" fill="none" xmlns="http://www.w3.org/2000/svg">
<g id="FastForward">
<path id="Vector" d="M31.0144 15.0113L19.9907 7.99129C19.6907 7.7995 19.3447 7.69176 18.9889 7.67932C18.6331 7.66687 18.2804 7.75019 17.9678 7.92055C17.6551 8.09092 17.394 8.3421 17.2115 8.64786C17.0291 8.95362 16.9321 9.30274 16.9307 9.65879V14.3213L6.99066 7.99129C6.69069 7.7995 6.34472 7.69176 5.98889 7.67932C5.63306 7.66687 5.28042 7.75019 4.96778 7.92055C4.65514 8.09092 4.39397 8.3421 4.21154 8.64786C4.02911 8.95362 3.93211 9.30274 3.93066 9.65879V23.6988C3.93251 24.0547 4.02977 24.4035 4.21229 24.7091C4.39481 25.0146 4.65592 25.2656 4.96842 25.4358C5.28092 25.6061 5.63337 25.6895 5.98904 25.6773C6.34472 25.665 6.6906 25.5576 6.99066 25.3663L16.9307 19.0363V23.6988C16.9325 24.0547 17.0298 24.4035 17.2123 24.7091C17.3948 25.0146 17.6559 25.2656 17.9684 25.4358C18.2809 25.6061 18.6334 25.6895 18.989 25.6773C19.3447 25.665 19.6906 25.5576 19.9907 25.3663L31.0144 18.3463C31.2953 18.168 31.5266 17.9217 31.6868 17.6302C31.8471 17.3387 31.9311 17.0114 31.9311 16.6788C31.9311 16.3461 31.8471 16.0189 31.6868 15.7274C31.5266 15.4359 31.2953 15.1895 31.0144 15.0113ZM5.93066 23.6713V9.68754L16.9082 16.6788L5.93066 23.6713ZM18.9307 23.6713V9.68754L29.9082 16.6788L18.9307 23.6713Z" fill="#121E28"/>
</g>
</svg>
