<svg width="25" height="24" viewBox="0 0 25 24" fill="none" xmlns="http://www.w3.org/2000/svg">
<g id="Funnel">
<path id="Vector" d="M22.1187 4.64346C22.0033 4.37675 21.812 4.14986 21.5686 3.99101C21.3253 3.83216 21.0406 3.74836 20.75 3.75002H4.24997C3.95966 3.7506 3.67575 3.8354 3.43269 3.99416C3.18962 4.15291 2.99785 4.37879 2.88063 4.64438C2.76341 4.90998 2.72579 5.20389 2.77232 5.49045C2.81886 5.77701 2.94755 6.04391 3.14279 6.25877L3.15029 6.26721L9.49998 13.0472V20.25C9.49991 20.5215 9.57353 20.7879 9.71297 21.0208C9.85241 21.2538 10.0525 21.4445 10.2918 21.5727C10.5311 21.7008 10.8007 21.7617 11.0719 21.7486C11.343 21.7356 11.6056 21.6493 11.8315 21.4988L14.8315 19.4981C15.0372 19.3612 15.2058 19.1755 15.3224 18.9576C15.439 18.7398 15.5 18.4965 15.5 18.2494V13.0472L21.8506 6.26721L21.8581 6.25877C22.0554 6.04489 22.1853 5.77764 22.2317 5.49037C22.278 5.2031 22.2387 4.90854 22.1187 4.64346ZM14.4068 12.0263C14.1463 12.3024 14.0008 12.6675 14 13.0472V18.2494L11 20.25V13.0472C11.0008 12.6662 10.8559 12.2992 10.595 12.0216L4.24997 5.25002H20.75L14.4068 12.0263Z" fill="#F0F0F2"/>
</g>
</svg>
