<svg width="25" height="24" viewBox="0 0 25 24" fill="none" xmlns="http://www.w3.org/2000/svg">
<g id="ListDashes">
<path id="Vector" d="M8.55664 6C8.55664 5.80109 8.63566 5.61032 8.77631 5.46967C8.91696 5.32902 9.10773 5.25 9.30664 5.25H20.5566C20.7556 5.25 20.9463 5.32902 21.087 5.46967C21.2276 5.61032 21.3066 5.80109 21.3066 6C21.3066 6.19891 21.2276 6.38968 21.087 6.53033C20.9463 6.67098 20.7556 6.75 20.5566 6.75H9.30664C9.10773 6.75 8.91696 6.67098 8.77631 6.53033C8.63566 6.38968 8.55664 6.19891 8.55664 6ZM20.5566 11.25H9.30664C9.10773 11.25 8.91696 11.329 8.77631 11.4697C8.63566 11.6103 8.55664 11.8011 8.55664 12C8.55664 12.1989 8.63566 12.3897 8.77631 12.5303C8.91696 12.671 9.10773 12.75 9.30664 12.75H20.5566C20.7556 12.75 20.9463 12.671 21.087 12.5303C21.2276 12.3897 21.3066 12.1989 21.3066 12C21.3066 11.8011 21.2276 11.6103 21.087 11.4697C20.9463 11.329 20.7556 11.25 20.5566 11.25ZM20.5566 17.25H9.30664C9.10773 17.25 8.91696 17.329 8.77631 17.4697C8.63566 17.6103 8.55664 17.8011 8.55664 18C8.55664 18.1989 8.63566 18.3897 8.77631 18.5303C8.91696 18.671 9.10773 18.75 9.30664 18.75H20.5566C20.7556 18.75 20.9463 18.671 21.087 18.5303C21.2276 18.3897 21.3066 18.1989 21.3066 18C21.3066 17.8011 21.2276 17.6103 21.087 17.4697C20.9463 17.329 20.7556 17.25 20.5566 17.25ZM5.55664 5.25H4.05664C3.85773 5.25 3.66696 5.32902 3.52631 5.46967C3.38566 5.61032 3.30664 5.80109 3.30664 6C3.30664 6.19891 3.38566 6.38968 3.52631 6.53033C3.66696 6.67098 3.85773 6.75 4.05664 6.75H5.55664C5.75555 6.75 5.94632 6.67098 6.08697 6.53033C6.22762 6.38968 6.30664 6.19891 6.30664 6C6.30664 5.80109 6.22762 5.61032 6.08697 5.46967C5.94632 5.32902 5.75555 5.25 5.55664 5.25ZM5.55664 11.25H4.05664C3.85773 11.25 3.66696 11.329 3.52631 11.4697C3.38566 11.6103 3.30664 11.8011 3.30664 12C3.30664 12.1989 3.38566 12.3897 3.52631 12.5303C3.66696 12.671 3.85773 12.75 4.05664 12.75H5.55664C5.75555 12.75 5.94632 12.671 6.08697 12.5303C6.22762 12.3897 6.30664 12.1989 6.30664 12C6.30664 11.8011 6.22762 11.6103 6.08697 11.4697C5.94632 11.329 5.75555 11.25 5.55664 11.25ZM5.55664 17.25H4.05664C3.85773 17.25 3.66696 17.329 3.52631 17.4697C3.38566 17.6103 3.30664 17.8011 3.30664 18C3.30664 18.1989 3.38566 18.3897 3.52631 18.5303C3.66696 18.671 3.85773 18.75 4.05664 18.75H5.55664C5.75555 18.75 5.94632 18.671 6.08697 18.5303C6.22762 18.3897 6.30664 18.1989 6.30664 18C6.30664 17.8011 6.22762 17.6103 6.08697 17.4697C5.94632 17.329 5.75555 17.25 5.55664 17.25Z" fill="#121E28"/>
</g>
</svg>
