<svg width="26" height="26" viewBox="0 0 26 26" fill="none" xmlns="http://www.w3.org/2000/svg">
<g id="Paperclip">
<path id="Vector" d="M21.2932 12.4255C21.3688 12.5009 21.4287 12.5905 21.4696 12.6892C21.5105 12.7878 21.5315 12.8935 21.5315 13.0003C21.5315 13.1071 21.5105 13.2128 21.4696 13.3115C21.4287 13.4101 21.3688 13.4997 21.2932 13.5752L12.96 21.9033C11.8932 22.97 10.4464 23.5691 8.93779 23.569C7.4292 23.569 5.98243 22.9696 4.91577 21.9028C3.8491 20.836 3.2499 19.3891 3.25 17.8805C3.2501 16.372 3.84947 14.9252 4.91627 13.8585L14.9974 3.62914C15.759 2.86672 16.7923 2.43807 17.8699 2.4375C18.9476 2.43693 19.9813 2.86448 20.7438 3.6261C21.5062 4.38771 21.9348 5.42101 21.9354 6.49867C21.936 7.57633 21.5084 8.61008 20.7468 9.3725L10.6637 19.6019C10.2058 20.0598 9.58472 20.317 8.93713 20.317C8.28955 20.317 7.66848 20.0598 7.21057 19.6019C6.75266 19.144 6.49541 18.5229 6.49541 17.8753C6.49541 17.2277 6.75266 16.6067 7.21057 16.1488L15.6707 7.55453C15.7448 7.47547 15.834 7.41204 15.933 7.36796C16.032 7.32388 16.1388 7.30005 16.2472 7.29787C16.3555 7.29569 16.4632 7.3152 16.5639 7.35526C16.6645 7.39532 16.7562 7.45512 16.8334 7.53113C16.9107 7.60714 16.9719 7.69784 17.0136 7.79787C17.0552 7.89791 17.0765 8.00527 17.076 8.11363C17.0755 8.22199 17.0534 8.32917 17.0109 8.42885C16.9684 8.52853 16.9064 8.61871 16.8285 8.69406L8.36737 17.2974C8.29161 17.3726 8.2314 17.4619 8.19017 17.5603C8.14894 17.6588 8.1275 17.7644 8.12708 17.8711C8.12666 17.9778 8.14725 18.0835 8.1877 18.1823C8.22814 18.281 8.28764 18.3708 8.3628 18.4466C8.43795 18.5224 8.5273 18.5826 8.62572 18.6238C8.72415 18.665 8.82973 18.6865 8.93644 18.6869C9.04315 18.6873 9.1489 18.6667 9.24765 18.6263C9.3464 18.5858 9.43622 18.5263 9.51198 18.4512L19.5941 8.22688C20.052 7.76991 20.3096 7.14975 20.3103 6.50283C20.311 5.85591 20.0546 5.23522 19.5976 4.77731C19.1407 4.31939 18.5205 4.06177 17.8736 4.0611C17.2267 4.06043 16.606 4.31678 16.1481 4.77375L6.06901 14.9991C5.69143 15.376 5.3918 15.8237 5.18722 16.3165C4.98265 16.8093 4.87713 17.3375 4.87671 17.8711C4.87628 18.4046 4.98096 18.933 5.18475 19.4261C5.38854 19.9192 5.68746 20.3674 6.06444 20.745C6.44142 21.1225 6.88908 21.4222 7.38186 21.6268C7.87464 21.8313 8.40288 21.9368 8.93644 21.9373C9.47 21.9377 9.99841 21.833 10.4915 21.6292C10.9846 21.4254 11.4328 21.1265 11.8103 20.7495L20.1446 12.4214C20.2975 12.2697 20.5043 12.1849 20.7197 12.1856C20.9351 12.1864 21.1414 12.2727 21.2932 12.4255Z" fill="#F0F0F2"/>
</g>
</svg>
