<svg width="26" height="26" viewBox="0 0 26 26" fill="none" xmlns="http://www.w3.org/2000/svg">
<g id="UserList" clip-path="url(#clip0_1689_1539)">
<path id="Vector" d="M14.6245 8.12487C14.6245 7.90938 14.7101 7.70272 14.8624 7.55035C15.0148 7.39797 15.2215 7.31237 15.437 7.31237H25.187C25.4025 7.31237 25.6091 7.39797 25.7615 7.55035C25.9139 7.70272 25.9995 7.90938 25.9995 8.12487C25.9995 8.34036 25.9139 8.54702 25.7615 8.69939C25.6091 8.85177 25.4025 8.93737 25.187 8.93737H15.437C15.2215 8.93737 15.0148 8.85177 14.8624 8.69939C14.7101 8.54702 14.6245 8.34036 14.6245 8.12487ZM25.187 12.1874H15.437C15.2215 12.1874 15.0148 12.273 14.8624 12.4253C14.7101 12.5777 14.6245 12.7844 14.6245 12.9999C14.6245 13.2154 14.7101 13.422 14.8624 13.5744C15.0148 13.7268 15.2215 13.8124 15.437 13.8124H25.187C25.4025 13.8124 25.6091 13.7268 25.7615 13.5744C25.9139 13.422 25.9995 13.2154 25.9995 12.9999C25.9995 12.7844 25.9139 12.5777 25.7615 12.4253C25.6091 12.273 25.4025 12.1874 25.187 12.1874ZM25.187 17.0624H17.8745C17.659 17.0624 17.4523 17.148 17.2999 17.3003C17.1476 17.4527 17.062 17.6594 17.062 17.8749C17.062 18.0904 17.1476 18.297 17.2999 18.4494C17.4523 18.6018 17.659 18.6874 17.8745 18.6874H25.187C25.4025 18.6874 25.6091 18.6018 25.7615 18.4494C25.9139 18.297 25.9995 18.0904 25.9995 17.8749C25.9995 17.6594 25.9139 17.4527 25.7615 17.3003C25.6091 17.148 25.4025 17.0624 25.187 17.0624ZM15.4116 19.2967C15.4381 19.4001 15.4441 19.5077 15.429 19.6134C15.414 19.719 15.3783 19.8207 15.324 19.9125C15.2697 20.0044 15.1978 20.0847 15.1124 20.1487C15.0271 20.2128 14.9299 20.2594 14.8266 20.286C14.7603 20.3038 14.692 20.3127 14.6234 20.3124C14.4432 20.3125 14.2681 20.2526 14.1256 20.1423C13.9832 20.032 13.8814 19.8775 13.8363 19.703C13.2107 17.2716 10.7549 15.4374 8.12345 15.4374C5.49196 15.4374 3.03618 17.2706 2.41056 19.703C2.35668 19.9117 2.22209 20.0906 2.03639 20.2001C1.85068 20.3096 1.62908 20.3409 1.42032 20.287C1.21157 20.2331 1.03276 20.0985 0.923244 19.9128C0.813726 19.7271 0.782464 19.5055 0.836336 19.2967C1.40407 17.0918 3.05446 15.3064 5.14868 14.4217C4.34231 13.8007 3.75056 12.9427 3.45643 11.9683C3.1623 10.9939 3.18054 9.95187 3.50859 8.98834C3.83665 8.02482 4.45806 7.18814 5.28568 6.59565C6.11329 6.00316 7.10561 5.68457 8.12345 5.68457C9.14129 5.68457 10.1336 6.00316 10.9612 6.59565C11.7888 7.18814 12.4102 8.02482 12.7383 8.98834C13.0664 9.95187 13.0846 10.9939 12.7905 11.9683C12.4963 12.9427 11.9046 13.8007 11.0982 14.4217C13.1934 15.3064 14.8438 17.0918 15.4116 19.2967ZM8.12446 13.8124C8.76725 13.8124 9.39561 13.6218 9.93007 13.2646C10.4645 12.9075 10.8811 12.4 11.1271 11.8061C11.3731 11.2122 11.4374 10.5588 11.312 9.92833C11.1866 9.29789 10.8771 8.71879 10.4226 8.26427C9.96804 7.80975 9.38894 7.50022 8.75851 7.37482C8.12807 7.24942 7.4746 7.31378 6.88074 7.55976C6.28688 7.80575 5.7793 8.22231 5.42218 8.75677C5.06507 9.29123 4.87446 9.91958 4.87446 10.5624C4.87446 11.4243 5.21687 12.251 5.82636 12.8605C6.43586 13.47 7.26251 13.8124 8.12446 13.8124Z" fill="#F0F0F2"/>
</g>
<defs>
<clipPath id="clip0_1689_1539">
<rect width="26" height="26" fill="white"/>
</clipPath>
</defs>
</svg>
