<svg width="63" height="63" viewBox="0 0 63 63" fill="none" xmlns="http://www.w3.org/2000/svg">
<g id="WarningCircle">
<path id="Vector" d="M31.5 5.90625C26.438 5.90625 21.4898 7.4073 17.2809 10.2196C13.072 13.0319 9.7916 17.029 7.85447 21.7057C5.91734 26.3823 5.4105 31.5284 6.39804 36.4931C7.38558 41.4578 9.82315 46.0182 13.4025 49.5975C16.9818 53.1769 21.5422 55.6144 26.5069 56.602C31.4716 57.5895 36.6177 57.0827 41.2943 55.1455C45.971 53.2084 49.9682 49.928 52.7804 45.7191C55.5927 41.5103 57.0938 36.562 57.0938 31.5C57.0866 24.7143 54.3878 18.2086 49.5896 13.4104C44.7914 8.61219 38.2857 5.91342 31.5 5.90625ZM31.5 53.1562C27.2168 53.1562 23.0298 51.8861 19.4684 49.5065C15.9071 47.1269 13.1314 43.7447 11.4922 39.7875C9.85313 35.8303 9.42427 31.476 10.2599 27.2751C11.0955 23.0742 13.158 19.2154 16.1867 16.1867C19.2154 13.158 23.0742 11.0955 27.2751 10.2599C31.476 9.42426 35.8303 9.85312 39.7875 11.4922C43.7447 13.1313 47.1269 15.9071 49.5065 19.4684C51.8861 23.0298 53.1563 27.2168 53.1563 31.5C53.1497 37.2416 50.866 42.7462 46.8061 46.8061C42.7462 50.866 37.2416 53.1497 31.5 53.1562ZM29.5313 33.4688V19.6875C29.5313 19.1654 29.7387 18.6646 30.1079 18.2954C30.4771 17.9262 30.9779 17.7188 31.5 17.7188C32.0222 17.7188 32.5229 17.9262 32.8921 18.2954C33.2613 18.6646 33.4688 19.1654 33.4688 19.6875V33.4688C33.4688 33.9909 33.2613 34.4917 32.8921 34.8609C32.5229 35.2301 32.0222 35.4375 31.5 35.4375C30.9779 35.4375 30.4771 35.2301 30.1079 34.8609C29.7387 34.4917 29.5313 33.9909 29.5313 33.4688ZM34.4531 42.3281C34.4531 42.9122 34.2799 43.4832 33.9554 43.9688C33.631 44.4544 33.1697 44.8329 32.6301 45.0565C32.0905 45.28 31.4967 45.3385 30.9239 45.2245C30.351 45.1106 29.8248 44.8293 29.4118 44.4163C28.9988 44.0033 28.7176 43.4771 28.6036 42.9043C28.4897 42.3314 28.5482 41.7376 28.7717 41.198C28.9952 40.6584 29.3737 40.1972 29.8593 39.8727C30.345 39.5482 30.9159 39.375 31.5 39.375C32.2832 39.375 33.0344 39.6861 33.5882 40.24C34.142 40.7938 34.4531 41.5449 34.4531 42.3281Z" fill="#F6BE16"/>
</g>
</svg>
